#!OML:ASF X:\für Bonn\!DataBase\2005_08_11_Bastian_Final\c3d\Bastian.ASF
:FULLY-SPECIFIED
:DEGREES
46
root 0.0645141 11.6876 6.27177 168.065 -10.5406 -177.579
lowerback 26.3452 -2.67673 1.81036
upperback 6.28032 -4.30333 0.457844
thorax -7.66433 -2.64904 0.923983
lowerneck -11.6506 -5.94552 -5.8179
upperneck -8.03776 -8.13177 11.0908
head 0.193272 -4.37415 4.35556
rclavicle 3.55079e-014 -1.72943e-014
rhumerus 69.9086 14.5253 3.5403
rradius 40.2762
rwrist -53.7542
rhand -44.1708 -6.26239
rfingers 7.12502
rthumb -16.9856 -35.5397
lclavicle 3.55079e-014 -1.72943e-014
lhumerus 67.9471 -15.6033 -13.4567
lradius 33.4253
lwrist 8.69889
lhand -44.76 14.8771
lfingers 7.12502
lthumb -17.5527 44.1048
rfemur -37.2756 -25.9842 21.2142
rtibia 113.886
rfoot -45.6502 -0.864575
rtoes 0.871285
lfemur -41.6358 7.06365 -13.7675
ltibia 114.542
lfoot -39.6694 -20.6926
ltoes -2.4302
47
root 0.0644875 11.4563 6.27417 167.828 -10.5321 -177.487
lowerback 26.731 -2.67144 1.86243
upperback 6.32554 -4.3004 0.494178
thorax -7.80573 -2.65909 0.957572
lowerneck -11.6825 -5.94673 -5.8633
upperneck -8.13929 -8.13504 11.1198
head 0.168781 -4.38201 4.37591
rclavicle -1.60022e-014 4.87022e-015
rhumerus 69.9022 14.3021 3.6332
rradius 40.2833
rwrist -53.7627
rhand -44.2752 -6.25264
rfingers 7.12502
rthumb -17.0861 -35.5213
lclavicle -1.60022e-014 4.87022e-015
lhumerus 67.7474 -15.3343 -13.01
lradius 33.4028
lwrist 8.76816
lhand -44.6719 14.59
lfingers 7.12502
lthumb -17.4679 43.8252
rfemur -38.0948 -26.8301 21.0068
rtibia 116.289
rfoot -46.0674 -0.546196
rtoes 0.761658
lfemur -42.6803 7.55495 -13.4773
ltibia 116.971
lfoot -40.0079 -20.9188
ltoes -2.99463
48
root 0.0649563 11.2221 6.27624 167.624 -10.5085 -177.419
lowerback 27.0746 -2.66747 1.88033
upperback 6.35765 -4.30509 0.520725
thorax -7.93897 -2.67043 1.00016
lowerneck -11.695 -5.92395 -5.82963
upperneck -8.22036 -8.11401 11.0844
head 0.13838 -4.37819 4.35965
rclavicle 3.89618e-014 -1.799e-014
rhumerus 69.9326 14.1082 3.72307
rradius 40.2947
rwrist -53.8142
rhand -44.3583 -6.24175
rfingers 7.12502
rthumb -17.166 -35.5035
lclavicle 3.89618e-014 -1.799e-014
lhumerus 67.5151 -15.0877 -12.4607
lradius 33.3493
lwrist 8.75098
lhand -44.5156 14.2226
lfingers 7.12502
lthumb -17.3175 43.4711
rfemur -38.9299 -27.7643 20.7496
rtibia 118.684
rfoot -46.4814 -0.184729
rtoes 0.839405
lfemur -43.7708 8.1462 -13.1987
ltibia 119.39
lfoot -40.4003 -21.0824
ltoes -3.79058
49
root 0.064969 10.9855 6.27801 167.408 -10.49 -177.326
lowerback 27.3817 -2.65663 1.92973
upperback 6.41854 -4.29762 0.559249
thorax -8.02204 -2.6791 1.0304
lowerneck -11.7513 -5.92463 -5.82001
upperneck -8.28857 -8.12171 11.0564
head 0.123815 -4.38716 4.34712
rclavicle -1.10822e-014 1.78906e-015
rhumerus 69.9298 13.9068 3.67051
rradius 40.2458
rwrist -53.7384
rhand -44.4432 -6.21043
rfingers 7.12502
rthumb -17.2478 -35.465
lclavicle -1.10822e-014 1.78906e-015
lhumerus 67.3478 -14.8796 -12.1048
lradius 33.3556
lwrist 8.92925
lhand -44.396 14.0415
lfingers 7.12502
lthumb -17.2024 43.3
rfemur -39.7124 -28.8125 20.4582
rtibia 121.063
rfoot -46.9378 0.232697
rtoes 0.853714
lfemur -44.8506 8.81536 -12.8679
ltibia 121.791
lfoot -40.8396 -21.2296
ltoes -4.65752
50
root 0.0646556 10.7467 6.27964 167.193 -10.4622 -177.236
lowerback 27.67 -2.64582 1.96559
upperback 6.47952 -4.29329 0.607676
thorax -8.09354 -2.68918 1.07918
lowerneck -11.7785 -5.92079 -5.84414
upperneck -8.38621 -8.12007 11.0417
head 0.0959166 -4.39248 4.34815
rclavicle 1.84621e-014 -5.86415e-015
rhumerus 69.9755 13.7233 3.58629
rradius 40.1631
rwrist -53.6627
rhand -44.4624 -6.15567
rfingers 7.12502
rthumb -17.2663 -35.4086
lclavicle 1.84621e-014 -5.86415e-015
lhumerus 67.15 -14.7222 -11.732
lradius 33.3515
lwrist 9.0467
lhand -44.2966 13.8535
lfingers 7.12502
lthumb -17.1067 43.1204
rfemur -40.4302 -30.0152 20.0879
rtibia 123.43
rfoot -47.4203 0.727318
rtoes 1.07434
lfemur -45.9221 9.58324 -12.5141
ltibia 124.173
lfoot -41.2459 -21.4422
ltoes -5.36348
51
root 0.064648 10.5078 6.28127 166.988 -10.4281 -177.166
lowerback 27.9553 -2.63161 2.00917
upperback 6.52127 -4.27953 0.620807
thorax -8.18815 -2.69252 1.08194
lowerneck -11.7634 -5.91797 -5.75831
upperneck -8.47635 -8.13107 10.9554
head 0.0554655 -4.40608 4.30273
rclavicle -2.42766e-014 1.19271e-014
rhumerus 69.97 13.6262 3.45137
rradius 40.0731
rwrist -53.5609
rhand -44.5155 -6.11826
rfingers 7.12502
rthumb -17.3174 -35.3667
lclavicle -2.42766e-014 1.19271e-014
lhumerus 66.9978 -14.5919 -11.3618
lradius 33.3475
lwrist 9.08692
lhand -44.1433 13.7122
lfingers 7.12502
lthumb -16.9592 42.9918
rfemur -41.1085 -31.3495 19.6163
rtibia 125.777
rfoot -47.8886 1.3567
rtoes 1.60111
lfemur -46.9922 10.5067 -12.1849
ltibia 126.522
lfoot -41.7513 -21.4012
ltoes -6.86133
